<?xml version="1.0" encoding="utf-8"?>
<!-- Generator: Adobe Illustrator 19.2.1, SVG Export Plug-In . SVG Version: 6.00 Build 0)  -->
<svg version="1.1" id="Layer_1" xmlns="http://www.w3.org/2000/svg" xmlns:xlink="http://www.w3.org/1999/xlink" x="0px" y="0px"
	 viewBox="0 0 32 32" style="enable-background:new 0 0 32 32;" xml:space="preserve">
<style type="text/css">
	.st0{fill:#ffd42d;}
</style>
<g>
	<path class="st0" d="M5.1,26.9h4.8V12.1H5.1V26.9z M17.7,26.9v-8.6c0-1.8,1.1-2.8,2.7-2.8c1.6,0,2.6,1.1,2.6,3.4v8h4.8v-8.6
		c0-2.1-0.5-3.7-1.6-4.9s-2.5-1.7-4.2-1.7c-1.8,0-3.2,0.8-4.4,2.6l-0.2-2h-4.7l0.1,3.4v11.3H17.7z M7.5,9.8c1.7,0,2.9-1.2,2.9-2.6
		S9.4,4.5,7.5,4.5c-1.7,0-2.9,1.1-2.9,2.6S5.8,9.8,7.5,9.8L7.5,9.8z"/>
</g>
</svg>
