<?xml version="1.0" encoding="utf-8"?>
<!-- Generator: Adobe Illustrator 19.0.0, SVG Export Plug-In . SVG Version: 6.00 Build 0)  -->
<svg version="1.1" id="Capa_1" xmlns="http://www.w3.org/2000/svg" xmlns:xlink="http://www.w3.org/1999/xlink" x="0px" y="0px"
	 viewBox="0 0 35 20" style="enable-background:new 0 0 35 20;" xml:space="preserve">
<style type="text/css">
	.st0{fill:#FFFFFF;}
</style>
<path id="XMLID_9_" class="st0" d="M32.7,13.7h1.7c0.3,0,0.6-0.3,0.6-0.6c0-0.3-0.3-0.6-0.6-0.6h-2.2L26.5,0.3C26.4,0.1,26.2,0,26,0
	c0,0,0,0,0,0c-0.2,0-0.4,0.1-0.5,0.3l-5.7,12.1h-4.4L9.7,0.3C9.6,0.1,9.4,0,9.1,0c0,0,0,0,0,0C8.9,0,8.7,0.1,8.6,0.3L2.9,12.4H0.9
	c-0.3,0-0.6,0.3-0.6,0.6c0,0.3,0.3,0.6,0.6,0.6h1.5l-2.2,4.7c-0.1,0.3,0,0.6,0.3,0.8c0.3,0.1,0.6,0,0.8-0.3l2.4-5.2h10.9l2.4,5.2
	c0.1,0.2,0.3,0.3,0.5,0.3c0,0,0,0,0,0c0.2,0,0.4-0.1,0.5-0.3l2.4-5.2h10.9l2.4,5.2c0.1,0.2,0.3,0.3,0.5,0.3c0.1,0,0.2,0,0.3-0.1
	c0.3-0.1,0.4-0.5,0.3-0.8L32.7,13.7z M26,2l4.9,10.4h-9.8L26,2z M9.2,2L14,12.4H4.3L9.2,2z M17.6,17.1l-1.6-3.4h3.2L17.6,17.1z"/>
</svg>
