<?xml version="1.0" encoding="utf-8"?>
<!-- Generator: Adobe Illustrator 19.2.1, SVG Export Plug-In . SVG Version: 6.00 Build 0)  -->
<svg version="1.1" id="Layer_1" xmlns="http://www.w3.org/2000/svg" xmlns:xlink="http://www.w3.org/1999/xlink" x="0px" y="0px"
	 viewBox="0 0 32 32" style="enable-background:new 0 0 32 32;" xml:space="preserve">
<style type="text/css">
	.st0{fill:#212121;}
</style>
<g>
	<path class="st0" d="M28.1,8.5c-1,0.4-1.9,0.6-2.8,0.8c1-0.6,1.8-1.5,2.2-2.7c-1,0.6-2,1-3.1,1.2c-1-1-2.2-1.5-3.6-1.5
		c-1.4,0-2.6,0.5-3.5,1.4c-1,1-1.4,2.1-1.4,3.5c0,0.5,0.1,0.8,0.2,1.1c-4-0.2-7.7-2.1-10.2-5.1C5.3,8.1,5.1,8.9,5.1,9.7
		c0,1.8,0.7,3.1,2.2,4.1c-0.8,0-1.5-0.2-2.2-0.6v0.1c0,1.2,0.4,2.2,1.1,3.1C6.9,17.2,7.8,17.8,9,18c-0.4,0.1-0.9,0.2-1.4,0.2
		c-0.3,0-0.6,0-0.9-0.1c0.3,1,0.9,1.8,1.8,2.5c0.8,0.6,1.8,1,2.9,1c-1.9,1.5-4,2.3-6.1,2.3c-0.4,0-0.8,0-1.2-0.1
		c2.1,1.3,4.7,2,7.6,2c3.5,0,6.7-1.2,8.9-3c1.1-1,2-2,2.8-3.2c1.6-2.4,2.3-5.1,2.3-7.7v-0.7C26.7,10.4,27.5,9.6,28.1,8.5z"/>
</g>
</svg>
