<?xml version="1.0" encoding="utf-8"?>
<!-- Generator: Adobe Illustrator 19.2.1, SVG Export Plug-In . SVG Version: 6.00 Build 0)  -->
<svg version="1.1" id="Layer_1" xmlns="http://www.w3.org/2000/svg" xmlns:xlink="http://www.w3.org/1999/xlink" x="0px" y="0px"
	 viewBox="0 0 1315 601" style="enable-background:new 0 0 1315 601;" xml:space="preserve">
<style type="text/css">
	.st0{fill:#FFFFFF;}
</style>
<g>
	<path class="st0" d="M415.2,555.7l297.5-117.5l9.5-10.5L463,503.8L415.2,555.7z"/>
	<path class="st0" d="M754.5,198.8l9.5-2.8l13.2-29.7l-43.9,12.8l-5.6,11.8L754.5,198.8z"/>
	<path class="st0" d="M434.2,496.2l-16.4-4.8l-52,48.3L465,322l-34.9-10.2L396.5,383l-62,57.5l40.9-91.3l-36.3-10.7l-17.5,37.5
		l-34.8,32.3l17.5-38.4l-34.2-10l-43.8,12.9L70.3,517.9L165,304.8l105-30.9l14.5-33.3L30.4,315.5L14.5,349l98.8-29L0,560.1l47.9,14
		l90.9-98.8l-24.2,51.8l45.3,13.3l28.4-8.3l0,0l0,0l123.4-134.4l-41,88.2l40.6,11.9l64-69.6l-76.1,161.6l38.6,11.3l0,0l0,0
		L434.2,496.2z M215.3,474.8l-36.9,34.3l-12.7,3.7l48.2-110.4l41.3-12.1L215.3,474.8z"/>
	<path class="st0" d="M1246.9,72.9l28.3-63.3L1242.4,0l-0.4,0.1l-40.8,86.2l-29.2,8.6l-14.2,30.1l29.2-8.6l-13.5,28.4l-76.4,70.9
		l40.4-90.6l-35.8-10.5l-65,60.5L1102.1,29l-33.1-9.7l-60.7,129.1l-96.5,105.4l33-72.3l-34.1-10l-51.5,15.1l-155.1,144l50.5-113.3h0
		h0l-124.8,36.7l44.3-99.2l124.6-36.6l14.9-33.4l-254.2,74.8l-15.9,33.5l78.9-23.2L575,270.4l-29.1,8.5L531.7,309l29-8.5
		l-52.8,111.6l45.5,13.3l63-141.2l78.1-22.9L640.2,376l40.6,11.9l101.3-110.1l-30.6,65.5l40.6,11.9l64-69.6l-28.4,60.2L743,438.4
		l-14.9,31.5l27.6,8.3l62.2-18.2l72-157.8l102.8-120.3l-50.1,106.4l38.7,11.3l25.9-58.1l60.9-53.9l-34.6,72.8l40.8,12l80-86.9
		l-21.8,46l40.8,11.9l0.2,0l97.6-106.1l-16.4-4.8L1196,187l37.6-84.3l67.2-19.7l14.2-30.1L1246.9,72.9z M779.2,448.7l-11.6-3.5
		l29.6-34.6L779.2,448.7z M877.4,240.5l-62,57.5l37.2-83.5l42.9-12.6L877.4,240.5z"/>
	<path class="st0" d="M1284.7,183.5c-7,0-12.7,5.6-12.7,12.6c0,7,5.7,12.6,12.7,12.6c7,0,12.7-5.7,12.7-12.6
		C1297.3,189.2,1291.7,183.5,1284.7,183.5z M1284.6,206.1c-5.5,0-9.9-4.5-9.9-10c0-5.5,4.3-10,9.9-10c5.5,0,9.9,4.5,9.9,10
		C1294.5,201.6,1290.2,206.1,1284.6,206.1z"/>
	<path class="st0" d="M1290.3,193.2c0-2.9-1.8-4-4.6-4h-6v13.4h2.8v-5.2h1.6l3.1,5.2h3.3l-3.2-5.4
		C1289.3,196.8,1290.3,195.4,1290.3,193.2z M1285,195.1h-2.4v-3.3h2.4c1.6,0,2.3,0.3,2.3,1.6C1287.4,194.7,1286.6,195.1,1285,195.1z
		"/>
</g>
</svg>
