<?xml version="1.0" encoding="iso-8859-1"?>
<!-- Generator: Adobe Illustrator 19.0.0, SVG Export Plug-In . SVG Version: 6.00 Build 0)  -->
<svg version="1.1" id="Layer_1" xmlns="http://www.w3.org/2000/svg" xmlns:xlink="http://www.w3.org/1999/xlink" x="0px" y="0px"
	 viewBox="0 0 505 505" style="enable-background:new 0 0 505 505;" xml:space="preserve">
<circle style="fill:#324A5E;" cx="252.5" cy="252.5" r="252.5"/>
<polygon style="fill:#84DBFF;" points="168.8,247.3 213.6,180.8 218.8,171.6 222.3,181.7 280.2,318.7 383.5,235.3 409.8,252.1 
	409.8,263.8 384.1,247.4 276.2,334.6 216.7,193.9 177,252.8 "/>
<polygon style="fill:#FF7058;" points="214.1,284.2 289.4,168.3 359.6,325.5 409.8,315.6 409.8,325.6 353.8,336.7 287.8,188.9 
	221.4,291.1 175.8,324.4 170,316.5 "/>
<g>
	<rect x="108" y="127.3" style="fill:#FFFFFF;" width="19" height="13.7"/>
	<rect x="108" y="170.2" style="fill:#FFFFFF;" width="19" height="13.7"/>
	<rect x="108" y="213" style="fill:#FFFFFF;" width="19" height="13.7"/>
	<rect x="108" y="255.9" style="fill:#FFFFFF;" width="19" height="13.6"/>
	<rect x="108" y="298.8" style="fill:#FFFFFF;" width="19" height="13.7"/>
	<rect x="108" y="341.7" style="fill:#FFFFFF;" width="19" height="13.7"/>
	<polygon style="fill:#FFFFFF;" points="97.1,407.9 97.1,97.1 113.9,97.1 113.9,391.1 407.9,391.1 407.9,407.9 	"/>
</g>
<g>
</g>
<g>
</g>
<g>
</g>
<g>
</g>
<g>
</g>
<g>
</g>
<g>
</g>
<g>
</g>
<g>
</g>
<g>
</g>
<g>
</g>
<g>
</g>
<g>
</g>
<g>
</g>
<g>
</g>
</svg>
